<mxfile host="app.diagrams.net" modified="2024-03-18T13:08:25.277Z" agent="Mozilla/5.0 (Windows NT 10.0; Win64; x64) AppleWebKit/537.36 (KHTML, like Gecko) Chrome/122.0.0.0 Safari/537.36" version="24.0.6" etag="7CXlIwybwB2IgbyYTMFo" type="github">
  <diagram name="Page-1" id="4D0Y81gkGZzY6KU4Eros">
    <mxGraphModel>
      <root>
        <mxCell id="0" />
        <mxCell id="1" parent="0" />
      </root>
    </mxGraphModel>
  </diagram>
</mxfile>
